<?xml version="1.0" standalone="no"?>
<!DOCTYPE svg PUBLIC "-//W3C//DTD SVG 20010904//EN"
 "http://www.w3.org/TR/2001/REC-SVG-20010904/DTD/svg10.dtd">
<svg version="1.0" xmlns="http://www.w3.org/2000/svg"
 width="1200.000000pt" height="1200.000000pt" viewBox="0 0 1200.000000 1200.000000"
 preserveAspectRatio="xMidYMid meet">

<g transform="translate(0.000000,1200.000000) scale(0.100000,-0.100000)"
fill="#000000" stroke="none">
<path d="M5170 11189 c-19 -4 -114 -22 -210 -39 -762 -136 -1764 -369 -2590
-602 -348 -98 -361 -102 -430 -123 -324 -98 -451 -140 -486 -161 -42 -24 -104
-104 -104 -133 1 -9 -1 -396 -4 -861 -11 -1675 -9 -5080 3 -5094 6 -7 22 -43
36 -80 98 -262 321 -531 587 -709 111 -75 114 -77 143 -144 75 -175 183 -306
337 -411 164 -112 395 -143 542 -73 23 11 100 33 171 50 72 17 180 45 240 62
124 35 214 59 220 59 3 0 5 -123 5 -274 l0 -273 36 -69 c39 -75 104 -149 174
-195 48 -32 155 -69 201 -69 16 0 38 -5 48 -12 14 -9 81 1 322 46 618 116
1996 388 2031 401 16 6 15 9 153 -350 150 -388 394 -988 495 -1220 86 -197 99
-231 122 -328 13 -53 77 -120 151 -157 71 -36 116 -39 124 -10 3 11 13 20 23
20 9 0 91 22 181 49 90 28 328 97 529 154 350 101 527 150 1450 402 369 101
895 251 1067 304 36 11 63 15 65 9 2 -6 21 -5 51 2 64 17 112 69 102 114 -3
17 -6 42 -7 55 0 25 -2 25 -90 5 -25 -6 -28 -4 -28 19 0 38 37 131 60 152 11
10 20 23 20 29 0 7 20 32 45 56 34 33 52 44 71 42 13 -2 45 6 70 18 64 31 90
91 63 142 -8 15 -8 22 1 28 9 5 -36 103 -152 336 -144 289 -253 515 -411 854
-25 52 -146 309 -269 570 -124 261 -277 585 -341 720 -346 735 -684 1398 -749
1467 -20 21 -21 30 -14 165 4 79 22 323 42 543 122 1404 128 1498 97 1555 -11
20 -65 64 -140 116 -67 46 -130 95 -140 108 -10 13 -137 103 -283 202 -146 98
-345 232 -442 299 -263 178 -1046 709 -1334 904 l-252 170 -6 -40 c-4 -24 -2
-55 5 -74 22 -61 -40 -154 -128 -190 -64 -27 -61 -63 -27 383 l16 203 -27 41
c-19 29 -44 48 -93 71 -63 30 -73 32 -162 29 -138 -4 -427 42 -585 93 -241 79
-402 215 -421 356 -6 50 8 99 30 99 32 0 35 69 5 112 -54 75 -119 99 -209 77z
m111 -62 c35 -23 68 -71 57 -82 -14 -14 -298 -80 -688 -159 -1047 -213 -1938
-437 -2576 -647 -115 -38 -220 -69 -233 -69 -33 0 -73 -24 -114 -69 -84 -93
-108 -204 -65 -301 34 -76 115 -160 219 -229 91 -60 173 -91 327 -125 66 -15
80 -15 135 -1 34 8 118 29 187 45 69 16 202 50 295 75 492 131 1201 309 1740
436 823 194 1751 393 1824 391 34 -1 131 -43 149 -65 16 -19 23 -60 13 -76
-11 -16 -323 -90 -1551 -366 -228 -51 -730 -163 -1115 -249 -385 -86 -851
-190 -1035 -232 -184 -41 -364 -81 -400 -88 -75 -15 -302 -41 -343 -38 -39 2
-207 84 -281 137 -71 50 -168 149 -215 218 -81 119 -147 289 -172 441 l-12 80
45 41 c48 43 61 48 453 165 648 195 1123 319 1998 526 610 143 753 174 936
200 97 14 219 33 271 43 123 24 112 24 151 -2z m24 -215 c0 -54 5 -78 30 -125
29 -59 126 -160 165 -172 36 -11 22 -23 -37 -30 -306 -37 -1254 -211 -1727
-316 -98 -22 -181 -38 -183 -35 -5 5 1090 275 1596 394 113 27 207 54 209 60
7 21 -44 14 -267 -39 -798 -186 -1989 -494 -2381 -615 -102 -31 -212 -65 -245
-75 l-60 -17 59 3 c32 3 102 18 155 34 175 54 365 99 986 231 641 136 1013
207 1655 315 151 26 278 49 282 51 4 3 33 -7 65 -22 136 -62 369 -124 527
-140 l70 -7 -310 -63 c-170 -35 -394 -82 -499 -105 -104 -22 -248 -54 -320
-69 -71 -16 -236 -54 -365 -85 -129 -31 -332 -78 -450 -106 -118 -27 -267 -63
-330 -79 -63 -16 -216 -55 -340 -85 -292 -72 -587 -149 -933 -241 -153 -41
-284 -74 -291 -74 -7 0 -36 26 -64 59 l-51 58 407 101 c380 95 625 153 1132
267 113 25 241 55 285 65 44 10 123 29 175 40 97 22 301 71 372 91 22 5 38 13
35 15 -5 5 -176 -30 -602 -122 -88 -19 -178 -38 -200 -44 -22 -5 -134 -30
-250 -55 -286 -63 -925 -214 -1177 -278 l-207 -53 -162 164 c-88 90 -158 166
-156 169 9 8 285 81 507 134 188 44 348 79 730 157 147 31 55 25 -140 -8 -267
-45 -547 -104 -848 -181 -151 -38 -278 -69 -283 -69 -12 0 -89 70 -89 81 0 13
18 19 240 88 706 216 1454 410 2260 585 140 31 284 62 320 70 147 33 276 60
480 101 118 24 217 44 220 44 3 1 5 -29 5 -67z m-1785 -692 c-34 -11 -60 -11
-35 0 11 5 29 8 40 8 16 0 15 -2 -5 -8z m3036 -82 c-3 -29 -13 -143 -21 -253
-22 -298 -31 -329 -94 -356 -22 -9 -438 -124 -641 -177 -41 -11 -201 -54 -355
-95 -1185 -318 -2568 -665 -3015 -757 -177 -37 -209 -47 -237 -73 -13 -11 -25
-18 -28 -15 -3 3 -12 36 -20 74 -11 52 -15 146 -15 379 l0 310 143 34 c78 18
198 46 267 62 69 16 143 34 165 39 22 6 191 44 375 85 184 42 362 82 395 90
33 7 130 30 215 49 85 19 313 71 505 115 193 44 580 132 860 195 281 64 726
167 990 230 264 63 488 115 499 115 16 1 18 -5 12 -51z m-4784 -107 c2 -5 75
-84 164 -177 224 -235 325 -346 320 -351 -7 -8 -171 39 -187 53 -8 8 -23 14
-33 14 -9 0 -36 10 -59 21 -168 86 -289 232 -273 331 11 68 56 141 68 109z
m-316 -211 c19 -52 54 -128 77 -169 58 -102 179 -228 285 -298 48 -31 98 -67
112 -79 14 -12 51 -38 84 -56 l58 -33 -1 -2863 c-1 -1575 -4 -2877 -8 -2892
l-5 -29 -52 36 c-281 195 -493 464 -587 744 -30 89 -30 90 -24 252 4 89 7
1374 8 2856 1 1481 6 2678 10 2660 5 -19 24 -77 43 -129z m5671 -113 c164
-112 380 -259 481 -328 100 -68 228 -155 285 -194 56 -38 287 -196 512 -349
226 -154 428 -295 450 -315 23 -20 134 -101 249 -181 l207 -145 -4 -38 c-3
-21 -8 -41 -10 -44 -3 -3 -33 18 -67 46 -33 28 -65 51 -71 51 -22 0 -5 -28 56
-88 l64 -64 -18 -37 c-25 -48 -66 -88 -114 -111 l-39 -19 -162 110 c-88 61
-305 208 -481 328 -497 336 -751 508 -865 586 -309 211 -959 645 -987 659 -26
13 -33 23 -33 45 0 24 6 29 43 40 23 7 57 22 74 33 18 11 38 16 45 12 7 -4
324 -229 703 -499 1319 -940 1428 -1016 1444 -1013 49 10 44 13 -944 710 -367
259 -480 339 -705 499 -133 95 -359 253 -478 335 -5 3 22 44 30 44 4 0 253
-176 555 -392 543 -388 1591 -1134 1710 -1217 59 -41 83 -46 83 -16 0 8 -46
47 -102 87 -57 39 -350 247 -653 462 -848 601 -1053 746 -1350 954 -121 85
-221 156 -223 157 -3 3 10 95 14 95 2 0 138 -91 301 -203z m-568 -223 c34 -20
58 -54 38 -54 -7 0 -76 -18 -152 -40 -77 -22 -252 -65 -390 -96 -719 -160
-1857 -446 -2505 -629 -47 -13 -159 -45 -250 -70 -178 -50 -635 -186 -699
-209 -29 -9 -41 -10 -44 -2 -5 15 -71 -32 -91 -65 -22 -38 -20 -54 12 -84 36
-34 148 -68 302 -93 184 -30 249 -36 274 -23 33 17 1398 326 2281 516 143 30
321 69 395 85 473 103 821 173 997 199 112 17 217 38 235 47 36 19 143 15 192
-7 24 -11 63 -65 54 -74 -2 -2 -57 -17 -123 -34 -151 -38 -440 -93 -1535 -296
-940 -174 -1559 -299 -2075 -420 -132 -30 -310 -67 -395 -81 -85 -14 -202 -36
-260 -51 -194 -47 -329 -13 -481 124 -42 38 -139 175 -139 197 0 7 19 30 43
53 l42 40 235 48 c217 43 1559 375 2080 513 124 33 270 72 325 87 194 51 622
167 795 215 96 27 281 78 410 114 129 36 262 74 295 85 74 24 99 25 134 5z
m164 -42 c80 -59 1182 -814 1732 -1187 l266 -180 -5 -50 c-3 -27 -33 -367 -66
-755 -96 -1123 -109 -1271 -116 -1340 -4 -36 -8 -87 -9 -113 -2 -27 -7 -52
-11 -57 -13 -12 -476 -161 -482 -155 -3 3 0 5 7 5 7 0 27 6 44 14 18 8 90 33
161 56 89 30 124 45 115 52 -10 6 -6 7 11 3 14 -3 50 3 80 13 51 17 55 22 61
55 3 20 3 41 -1 47 -6 9 -70 9 -251 0 -134 -7 -255 -13 -269 -14 l-25 -1 -7
195 c-4 107 -13 281 -19 385 -7 105 -13 225 -14 268 -1 66 -5 81 -25 102 -13
14 -28 25 -33 25 -5 0 -52 20 -104 45 -103 49 -158 99 -292 269 -35 45 -65 82
-66 84 -2 2 -13 -2 -25 -8 -20 -11 -28 -6 -85 50 -48 48 -70 63 -96 65 -29 2
-34 6 -32 26 0 13 6 137 12 274 6 138 16 322 21 410 5 88 14 246 21 350 27
483 23 444 48 468 l23 22 -20 -35 c-17 -30 -22 -76 -36 -350 -9 -173 -23 -430
-30 -570 -8 -140 -17 -317 -20 -392 l-6 -138 26 0 c35 0 61 -15 118 -69 43
-40 48 -43 42 -21 -3 14 -6 31 -6 38 0 7 -4 11 -9 8 -14 -9 -59 51 -71 94 -14
52 1 110 39 149 l28 29 7 309 c4 169 11 440 17 601 11 301 9 350 -17 377 -21
21 -61 19 -68 -2 -4 -14 -4 -14 -3 2 2 28 -30 73 -77 106 -35 26 -47 29 -114
29 -42 0 -72 3 -69 7 4 3 37 5 73 4 43 -1 64 1 60 8 -13 20 -255 209 -338 264
-117 77 -132 83 -165 67 -16 -7 -39 -15 -53 -17 -34 -6 -61 -33 -55 -54 3 -9
1 -20 -4 -24 -7 -3 -8 0 -5 9 13 33 -6 14 -21 -20 -13 -32 -13 -39 1 -65 9
-18 20 -27 27 -23 7 4 9 4 5 -1 -10 -11 48 -48 117 -72 89 -33 170 -53 265
-68 54 -8 71 -13 47 -14 -81 -2 -342 68 -397 108 -14 9 -32 20 -41 23 -9 4
-24 23 -33 43 -18 37 -18 38 10 93 31 59 36 63 102 83 44 13 60 38 49 79 -7
27 -4 26 56 -18z m-260 -138 c-19 -34 -24 -55 -20 -83 l5 -37 -152 -37 c-83
-20 -281 -71 -441 -112 -159 -42 -450 -116 -645 -166 -195 -50 -440 -112 -545
-139 -104 -27 -361 -92 -570 -145 -830 -210 -921 -235 -861 -235 24 0 430 91
664 149 275 68 395 95 409 92 13 -2 125 18 363 64 69 13 249 47 400 75 151 28
500 96 775 150 275 55 570 113 656 129 l157 30 63 -19 c35 -11 72 -20 82 -20
9 0 17 -3 17 -8 0 -4 -62 -20 -137 -35 -1127 -228 -3554 -759 -3665 -802 -10
-4 -18 -3 -18 3 0 5 60 24 133 41 169 41 196 53 98 46 -89 -7 -208 -32 -238
-51 -20 -12 -28 -10 -92 34 -39 26 -70 50 -71 53 -1 15 195 67 430 113 l75 15
-105 -4 c-122 -5 -258 -32 -363 -73 l-75 -29 -58 33 c-36 20 -53 35 -44 38
232 75 1195 339 1875 515 491 127 1361 339 1605 392 58 12 148 33 200 45 52
12 100 23 107 23 7 1 1 -18 -14 -45z m32 -173 c16 -16 51 -40 77 -53 l48 -24
-293 -53 c-424 -77 -1508 -293 -1856 -371 -169 -37 -106 -14 106 40 484 122
1068 276 1523 400 334 91 320 87 345 89 10 0 33 -12 50 -28z m690 -353 c-16
-170 -61 -909 -75 -1243 -18 -434 -22 -505 -29 -505 -30 0 -896 -151 -1121
-195 -41 -8 -147 -29 -235 -46 -480 -91 -1231 -247 -1630 -338 -329 -75 -433
-103 -449 -120 -15 -17 -17 -154 -16 -1667 l0 -1649 -32 -17 c-61 -30 -321
-109 -473 -143 -38 -9 -78 -18 -87 -21 -17 -5 -18 84 -19 1763 -1 972 -4 2130
-8 2573 -3 443 -5 807 -4 809 4 6 376 96 648 157 539 120 1320 273 2415 475
63 12 336 65 605 119 270 54 496 98 503 99 9 1 11 -13 7 -51z m-4477 -490 c44
-25 172 -110 172 -113 0 -6 -268 46 -310 60 -26 9 -55 24 -65 35 -16 18 -16
20 1 42 11 13 26 22 35 20 8 -1 26 1 40 7 18 7 32 4 57 -10 17 -10 49 -29 70
-41z m-458 -147 c166 -197 392 -264 647 -192 40 12 74 21 75 21 2 0 0 -75 -3
-167 -4 -93 -7 -1236 -8 -2541 -1 -1879 -4 -2376 -14 -2392 -10 -17 -9 -22 3
-30 45 -28 -90 -67 -192 -56 -129 15 -262 82 -375 190 -92 87 -151 168 -202
278 l-39 83 -4 2495 -3 2495 30 -59 c16 -32 55 -88 85 -125z m6846 -322 c19
-22 19 -22 -3 -10 -24 12 -39 31 -25 31 5 0 17 -10 28 -21z m-1917 -626 c0
-75 4 -109 13 -115 13 -9 49 -6 143 11 116 20 176 -70 119 -181 -8 -15 -11
-29 -6 -31 21 -13 154 -47 188 -48 21 -1 53 -5 69 -9 18 -5 0 -6 -45 -3 -63 4
-230 46 -230 58 0 3 9 27 20 55 27 69 25 87 -11 121 -38 35 -69 37 -191 10
l-86 -19 4 92 c2 50 3 108 4 129 0 20 2 37 4 37 3 0 5 -48 5 -107z m231 -168
c15 -16 20 -29 14 -34 -5 -5 -121 -30 -259 -56 -350 -64 -556 -107 -884 -181
-156 -35 -619 -131 -1030 -213 -900 -180 -1362 -277 -1407 -296 -40 -17 -41
-22 -11 -66 15 -23 48 -47 101 -73 101 -51 194 -60 271 -28 107 45 456 120
935 201 162 28 309 55 325 60 48 17 1489 292 2082 398 137 24 213 25 213 3 0
-10 -35 -14 -110 -11 -54 2 -428 -64 -1095 -193 -693 -134 -1920 -382 -2333
-472 -154 -33 -264 -33 -357 1 -78 29 -102 47 -129 102 -10 21 -22 45 -26 53
-4 9 -11 30 -14 47 -8 35 -17 30 114 63 86 22 640 146 890 200 685 146 1288
264 2040 400 305 55 573 104 595 109 22 5 43 9 46 10 3 0 16 -10 29 -24z m-12
-100 c-13 -29 -21 -31 -38 -10 -10 12 -8 16 11 24 36 15 40 13 27 -14z m-102
-12 c15 -16 6 -19 -162 -50 -465 -87 -1063 -218 -1050 -230 4 -5 262 43 686
127 107 21 274 53 370 70 96 18 178 34 182 36 7 5 77 -37 78 -47 0 -3 -35 -11
-77 -17 -127 -20 -456 -86 -445 -90 14 -4 363 44 481 67 75 15 101 16 131 7
58 -17 57 -23 -7 -34 -32 -6 -218 -40 -414 -76 -587 -107 -1053 -198 -1464
-286 -99 -21 -304 -59 -455 -84 -324 -55 -568 -104 -773 -155 -94 -23 -151
-33 -157 -27 -6 6 -23 5 -47 -3 -21 -7 -56 -11 -78 -9 -39 3 13 15 516 124 59
12 515 104 1015 204 499 99 910 183 913 185 9 10 -24 4 -352 -55 -729 -133
-1637 -309 -1832 -355 -33 -8 -131 -30 -218 -50 l-159 -37 -53 26 c-71 35 -85
52 -54 66 27 11 265 62 869 186 726 149 841 172 1017 204 95 17 324 65 510
106 402 89 960 208 1005 213 4 1 14 -7 24 -16z m489 -113 c7 -12 -2 -12 -30 0
-19 8 -19 9 2 9 12 1 25 -3 28 -9z m44 -16 c12 8 6 -57 -8 -82 -9 -18 -12
-150 -10 -587 2 -538 3 -565 20 -565 10 0 53 11 96 25 42 14 81 24 86 22 5 -1
-33 -16 -85 -32 -51 -16 -99 -33 -106 -38 -7 -6 -15 -8 -17 -5 -3 2 -5 266 -5
587 -1 507 1 585 15 604 19 27 19 41 0 57 -8 7 -12 17 -8 23 5 8 8 7 11 -1 2
-7 7 -10 11 -8z m-97 -681 c-1 -324 -4 -593 -7 -600 -5 -14 -899 -306 -1640
-535 -126 -39 -238 -75 -247 -80 -20 -10 -24 -54 -6 -60 8 -3 5 -17 -10 -44
-63 -115 -97 -268 -89 -400 5 -80 12 -107 57 -220 123 -304 303 -755 383 -959
227 -577 257 -658 254 -661 -9 -9 -1491 -302 -2212 -438 l-120 -22 -2 190 c-2
105 -4 981 -5 1948 l-3 1756 200 40 c110 23 477 98 815 167 1347 276 2436 489
2540 498 25 2 56 4 70 5 l25 2 -3 -587z m-3948 -67 c46 -27 126 -46 191 -46
l45 0 2 -1922 c2 -1141 7 -1931 12 -1942 9 -18 6 -19 -28 -13 -105 17 -229
111 -285 216 l-31 59 0 1867 0 1867 26 -31 c14 -17 45 -42 68 -55z m4823 -226
c-5 -34 -17 -35 -17 -1 0 19 4 30 10 26 5 -3 8 -15 7 -25z m618 -251 c47 -41
184 -318 380 -769 102 -232 259 -604 335 -790 126 -311 348 -835 434 -1027 71
-160 86 -201 86 -243 0 -58 -19 -94 -61 -116 -62 -32 -136 -3 -193 75 -45 61
-147 272 -256 531 -45 107 -104 247 -130 310 -27 63 -63 151 -80 195 -17 44
-38 94 -45 110 -8 17 -39 91 -68 165 -88 218 -198 488 -307 750 -286 690 -298
726 -266 788 21 40 41 51 93 52 33 0 50 -7 78 -31z m-2350 -429 c-3 -5 -12
-10 -18 -10 -7 0 -6 4 3 10 19 12 23 12 15 0z m305 -312 c0 -6 -6 -5 -15 2 -8
7 -15 14 -15 16 0 2 7 1 15 -2 8 -4 15 -11 15 -16z m75 -69 c11 -16 1 -19 -13
-3 -7 8 -8 14 -3 14 5 0 13 -5 16 -11z m2805 -611 c8 -12 27 -48 42 -82 l28
-61 -33 39 c-17 22 -32 45 -32 50 -1 6 -7 10 -14 8 -7 -1 -19 3 -27 9 -9 8
-33 10 -65 6 -42 -5 -50 -4 -45 8 3 8 1 15 -4 15 -23 0 -7 20 23 29 46 14 109
3 127 -21z m-392 -274 c2 -12 -12 -34 -36 -57 -32 -32 -45 -38 -73 -35 l-34 3
44 40 c25 22 41 35 38 28 -4 -6 -3 -14 2 -18 6 -3 8 4 6 16 -3 13 3 28 13 35
22 17 36 13 40 -12z m-36 -160 c54 -51 84 -87 80 -97 -1 -5 1 -6 6 -3 5 3 19
-5 31 -18 16 -17 22 -33 19 -60 l-3 -36 -122 121 c-68 67 -123 125 -123 128 0
4 16 6 35 6 27 -1 46 -11 77 -41z m138 -94 l13 -25 -20 20 c-11 11 -18 24 -16
28 6 10 7 9 23 -23z m-598 -310 c69 -33 111 -75 155 -154 25 -46 28 -60 28
-151 0 -90 -3 -105 -28 -154 -37 -69 -98 -131 -162 -164 -47 -24 -52 -24 -80
-10 -125 65 -141 159 -37 212 84 43 122 101 122 186 0 70 -17 112 -63 152 -64
56 -179 59 -245 6 -62 -50 -83 -97 -79 -173 3 -75 32 -129 85 -157 17 -10 32
-21 32 -24 0 -17 29 -16 33 2 3 10 2 17 -3 14 -4 -3 -13 8 -20 24 -20 49 4
117 67 194 l23 29 15 -36 c25 -60 19 -124 -20 -203 -19 -40 -35 -87 -35 -106
0 -46 36 -96 89 -123 l44 -22 -51 -7 c-69 -9 -125 1 -195 37 -72 36 -116 80
-153 155 -25 50 -29 69 -29 143 0 68 5 95 24 137 13 29 27 50 32 47 5 -3 7 1
4 8 -6 19 18 47 39 45 10 -1 25 9 33 23 l15 25 -20 -25 c-11 -14 -24 -21 -28
-17 -21 20 107 100 190 117 68 15 149 3 218 -30z m1376 -917 c70 -75 92 -110
92 -151 0 -107 -118 -156 -199 -83 -42 38 -81 125 -81 184 0 64 39 107 96 107
34 0 45 -7 92 -57z m-2251 35 c49 -21 104 -82 57 -64 -8 3 -12 2 -9 -4 8 -13
-126 -141 -144 -138 -30 6 -20 30 35 89 45 47 55 62 44 69 -27 17 -120 -15
-120 -41 0 -6 -3 -8 -7 -6 -5 3 -7 -17 -7 -44 2 -60 28 -94 82 -104 21 -3 46
-8 57 -10 11 -3 14 -2 8 1 -9 4 -3 14 16 30 20 17 31 38 36 67 8 49 34 85 47
65 30 -49 -15 -163 -76 -192 -103 -49 -226 28 -226 143 0 101 115 178 207 139z
m-217 -263 c22 -14 40 -30 40 -37 0 -6 -26 -37 -57 -69 -44 -45 -63 -58 -78
-53 -16 4 -17 3 -5 -5 13 -10 13 -12 0 -21 -20 -13 -25 -13 -41 6 -11 13 -8
20 19 45 18 17 37 27 42 24 5 -3 7 0 4 8 -3 9 4 22 17 30 14 10 19 22 15 33
-5 13 -15 15 -49 11 -55 -7 -87 -45 -87 -103 0 -68 53 -108 123 -92 21 5 43 5
49 2 6 -4 8 -3 5 3 -4 6 0 24 8 39 8 16 15 41 15 55 0 27 31 64 43 52 16 -15
6 -103 -14 -137 -20 -34 -30 -41 -54 -36 -5 1 -7 -2 -3 -6 14 -13 -26 -33 -65
-34 -132 -1 -211 147 -131 247 17 21 42 44 55 50 40 21 105 16 149 -12z m-311
-179 c9 -10 9 -21 3 -33 -10 -18 -15 -53 -13 -85 1 -10 16 -35 35 -55 19 -22
32 -47 31 -60 -1 -12 2 -20 7 -17 5 4 7 12 4 20 -9 23 8 15 32 -17 20 -24 22
-32 12 -44 -7 -8 -16 -15 -20 -15 -15 0 -130 124 -146 158 -19 40 -15 99 10
137 19 29 29 31 45 11z m3330 -19 c8 -11 7 -18 -7 -30 -26 -24 -60 -34 -286
-87 -593 -139 -1291 -332 -2061 -572 -159 -50 -299 -92 -310 -94 -75 -15 497
169 980 316 143 43 314 95 380 115 210 64 450 133 800 230 187 52 369 103 405
114 80 24 85 24 99 8z m-3532 -220 c-40 -42 -76 -77 -80 -77 -3 0 -11 10 -18
21 -10 19 -3 29 62 95 71 71 74 73 91 56 18 -17 16 -21 -55 -95z m3304 45
c-28 -34 -46 -42 -218 -101 -218 -73 -283 -100 -283 -114 0 -18 92 2 260 57
91 29 166 52 167 52 1 -1 -5 -22 -13 -46 -8 -24 -14 -62 -12 -84 2 -39 1 -41
-37 -52 -330 -98 -728 -210 -1345 -379 -836 -228 -960 -263 -1140 -315 -231
-66 -563 -168 -671 -206 -55 -19 -104 -32 -109 -29 -11 7 -13 55 -5 77 4 9 17
13 39 10 18 -2 69 6 112 18 355 99 2247 681 2477 762 97 34 125 55 60 45 -68
-11 -185 -47 -1298 -393 -614 -192 -1233 -379 -1285 -389 -27 -5 -32 -4 -20 5
13 10 12 11 -5 7 -11 -3 -28 -8 -39 -12 -16 -7 -17 -5 -7 11 6 10 32 42 58 71
46 50 54 54 228 117 539 194 1539 506 2195 685 402 110 886 238 908 240 7 1
-1 -16 -17 -37z m-3187 -131 c72 -72 78 -81 63 -95 -8 -9 -18 -16 -21 -16 -12
0 -125 123 -120 131 3 5 2 9 -3 8 -4 -1 -16 1 -26 6 -17 7 -17 9 -1 26 9 11
20 19 23 19 4 0 42 -36 85 -79z m-230 -2 c-3 -5 3 -6 13 -3 10 3 0 -12 -23
-33 -22 -21 -43 -45 -46 -53 -3 -11 -9 -7 -21 15 -15 30 -15 31 20 67 28 29
40 35 50 27 7 -6 10 -15 7 -20z m50 -48 c10 -11 15 -25 10 -32 -4 -7 -3 -10 4
-5 15 9 84 -54 78 -71 -3 -8 -2 -11 4 -8 13 8 40 -48 40 -82 0 -15 -9 -48 -21
-72 l-20 -45 -20 21 c-17 17 -19 24 -10 41 6 11 11 37 11 57 0 32 -9 46 -66
105 -60 62 -64 70 -52 89 16 26 20 26 42 2z m3406 -130 c0 -24 -45 -61 -74
-61 -23 0 -162 -37 -471 -125 -104 -30 -408 -113 -675 -185 -945 -255 -1981
-546 -2084 -586 -14 -5 -17 -4 -12 4 4 7 16 12 26 12 21 0 38 19 18 21 -16 1
104 40 362 119 256 77 627 182 1320 371 201 55 385 106 410 114 25 7 106 30
180 50 313 86 784 225 890 264 74 26 110 27 110 2z m-3350 -68 c0 -16 -4 -34
-9 -42 -8 -13 -12 -13 -28 0 -16 12 -17 12 -6 -2 11 -13 10 -19 -5 -33 -18
-15 -19 -15 -31 11 -9 20 -9 29 -2 31 7 2 24 17 39 32 34 37 42 37 42 3z m-23
-585 c-75 -75 -115 -140 -123 -202 -6 -39 -3 -50 20 -81 23 -30 33 -35 69 -36
l42 -1 -35 -11 c-19 -6 -37 -14 -40 -18 -10 -14 -108 32 -149 70 -39 36 -42
43 -36 73 15 72 133 190 243 244 75 37 77 28 9 -38z"/>
<path d="M8400 8426 c0 -8 418 -276 673 -430 73 -44 115 -54 105 -24 -6 17
-25 29 -338 215 -384 228 -440 259 -440 239z"/>
<path d="M7338 7498 c-2 -13 0 -39 6 -58 l11 -35 3 49 c3 51 -12 86 -20 44z"/>
<path d="M8956 3301 c-4 -5 3 -7 14 -4 23 6 26 13 6 13 -8 0 -17 -4 -20 -9z"/>
<path d="M9002 2995 c0 -16 2 -22 5 -12 2 9 2 23 0 30 -3 6 -5 -1 -5 -18z"/>
<path d="M8691 2904 c0 -11 3 -14 6 -6 3 7 2 16 -1 19 -3 4 -6 -2 -5 -13z"/>
<path d="M9296 2883 c-6 -14 -5 -15 5 -6 7 7 10 15 7 18 -3 3 -9 -2 -12 -12z"/>
<path d="M9011 2834 c0 -11 3 -14 6 -6 3 7 2 16 -1 19 -3 4 -6 -2 -5 -13z"/>
<path d="M9025 2811 c-3 -5 -2 -12 3 -15 5 -3 9 1 9 9 0 17 -3 19 -12 6z"/>
<path d="M9050 2705 c0 -2 10 -10 23 -16 20 -11 21 -11 8 4 -13 16 -31 23 -31
12z"/>
<path d="M9100 2706 c0 -2 8 -10 18 -17 15 -13 16 -12 3 4 -13 16 -21 21 -21
13z"/>
<path d="M8287 2389 c7 -7 15 -10 18 -7 3 3 -2 9 -12 12 -14 6 -15 5 -6 -5z"/>
<path d="M8357 2213 c-4 -3 -7 -11 -7 -17 0 -6 5 -5 12 2 6 6 9 14 7 17 -3 3
-9 2 -12 -2z"/>
<path d="M7726 1917 c3 -10 9 -15 12 -12 3 3 0 11 -7 18 -10 9 -11 8 -5 -6z"/>
<path d="M9920 1472 c-69 -10 -423 -109 -940 -264 -184 -55 -373 -111 -420
-124 -121 -36 -853 -259 -925 -282 -33 -11 -54 -20 -47 -21 13 -1 190 47 647
178 154 44 386 109 515 146 129 36 393 111 585 165 193 55 413 116 489 137
128 35 167 54 134 65 -7 2 -24 2 -38 0z"/>
<path d="M7695 1610 c6 -10 4 -12 -11 -6 -15 6 -17 5 -6 -5 9 -9 15 -10 23 -2
8 8 7 13 -2 18 -8 6 -10 4 -4 -5z"/>
<path d="M7420 511 c0 -5 7 -11 14 -14 10 -4 13 -1 9 9 -6 15 -23 19 -23 5z"/>
</g>
</svg>
